<?xml version="1.0" encoding="UTF-8"?>
<svg xmlns="http://www.w3.org/2000/svg"
    xmlns:xlink="http://www.w3.org/1999/xlink" width="100px" height="100px" viewBox="0 0 100 99" version="1.1">
    <g id="surface1">
        <path style="fill-rule:evenodd;fill:rgb(15.686275%,26.27451%,52.941176%);fill-opacity:1;stroke-width:1.27;stroke-linecap:round;stroke-linejoin:miter;stroke:rgb(0%,0%,0%);stroke-opacity:1;stroke-miterlimit:1.5;" d="M 1795.843125 1187.531881 C 1795.843125 1681.95273 1394.3925 2083.366162 899.960625 2083.366162 C 405.610312 2083.366162 4.159687 1681.95273 4.159687 1187.531881 C 4.159687 1093.125237 18.759375 1002.175505 45.838125 916.82268 L 515.80125 957.317945 C 475.34625 1024.563131 452.100937 1103.33136 452.100937 1187.531881 C 452.100937 1434.701152 652.744687 1635.449021 899.960625 1635.449021 C 1045.468125 1635.449021 1174.82625 1565.899227 1256.715 1458.32339 L 899.960625 1458.32339 L 1118.71125 1187.531881 Z M 1795.843125 1187.531881 " transform="matrix(0.0478927,0,0,0.0474593,0,0)"/>
        <path style=" stroke:none;fill-rule:evenodd;fill:rgb(15.686275%,26.27451%,52.941176%);fill-opacity:1;" d="M 86.007812 35.59375 L 94.988281 49.4375 L 2.195312 41.527344 L 0.199219 37.570312 Z M 86.007812 35.59375 "/>
        <path style=" stroke:none;fill-rule:evenodd;fill:rgb(15.686275%,26.27451%,52.941176%);fill-opacity:1;" d="M 5.183594 19.773438 L 0.09375 35.59375 L 0.199219 35.59375 L 86.007812 33.617188 L 99.976562 0 "/>
    </g>
</svg>
